# xmcd
#
# Track frame offsets:
#	150
#	19759
#	37642
#	47956
#	62270
#	80795
#	101316
#	120406
#	138143
#	148903
#	161634
#	186785
#
# Disc length: 2714 seconds
#
# Revision: 1
# Processed by: cddbd v1.5.1PL0 Copyright (c) Steve Scherf et al.
# Submitted via: audiograbber 1.83.01
#
DISCID=950a980c
DTITLE=Various Artist - Country Kotlik
DYEAR=1900
DGENRE=Country
TTITLE0=Hlucha Ucha - Divka Z Hor
TTITLE1=Libor Musil - Ohne V Udoli
TTITLE2=Basset - Blanik
TTITLE3=Seslost TC Praha - Sedm Zlutych Kaminku
TTITLE4=Akaty a Jitka Vrabova - Jen Ty Ma Sazavo
TTITLE5=Usvit - Totem
TTITLE6=Helena Mrsalkova a Jozef Blazejovsky - Dzinova Laska
TTITLE7=Blanket - Doufej
TTITLE8=Tulak Charlie - Na Cundr Do Pysel
TTITLE9=Eda a Eda - Stechovicky Valcik
TTITLE10=Duo Durango - Trampska Mse
TTITLE11=Petr Cejka - Princezna Ze Mlejna
EXTD=
EXTT0=
EXTT1=
EXTT2=
EXTT3=
EXTT4=
EXTT5=
EXTT6=
EXTT7=
EXTT8=
EXTT9=
EXTT10=
EXTT11=
PLAYORDER=
